<?xml version="1.0" encoding="UTF-8"?>
<svg id="Layer_1" data-name="Layer 1" xmlns="http://www.w3.org/2000/svg" viewBox="0 0 177.84 187.88">
  <defs>
    <style>
      .cls-1 {
        fill: #fff;
      }

      .cls-2 {
        fill: #b0d236;
      }

      .cls-3 {
        stroke: #fff;
        stroke-miterlimit: 10;
        stroke-width: 3px;
      }
    </style>
  </defs>
  <rect class="cls-3" x="1.5" y="1.5" width="174.84" height="184.88" rx="20.3" ry="20.3"/>
  <g>
    <g>
      <polygon class="cls-2" points="85.34 83.74 59 83.74 55.08 53.08 53.74 42.53 80.08 42.53 81.43 53.08 85.34 83.74"/>
      <polygon class="cls-1" points="85.34 83.74 59 83.74 55.08 53.08 53.74 42.53 80.08 42.53 81.43 53.08 85.34 83.74"/>
    </g>
    <g>
      <polygon class="cls-2" points="125.22 145.36 98.88 145.36 97.53 134.8 93.47 102.99 119.81 102.99 123.87 134.8 125.22 145.36"/>
      <polygon class="cls-1" points="125.22 145.36 98.88 145.36 97.53 134.8 93.47 102.99 119.81 102.99 123.87 134.8 125.22 145.36"/>
    </g>
    <g>
      <polygon class="cls-2" points="87.8 102.99 91.86 134.8 65.51 134.8 61.45 102.99 60.64 96.58 28.18 96.58 27.36 90.16 91.83 90.16 91.01 83.74 87.1 53.08 113.44 53.08 117.36 83.74 118.18 90.16 149.67 90.16 150.49 96.58 86.98 96.58 87.8 102.99"/>
      <polygon class="cls-1" points="87.8 102.99 91.86 134.8 65.51 134.8 61.45 102.99 60.64 96.58 28.18 96.58 27.36 90.16 91.83 90.16 91.01 83.74 87.1 53.08 113.44 53.08 117.36 83.74 118.18 90.16 149.67 90.16 150.49 96.58 86.98 96.58 87.8 102.99"/>
    </g>
  </g>
</svg>
